<?xml version="1.0" encoding="utf-8"?>
<!-- Generator: Adobe Illustrator 18.1.1, SVG Export Plug-In . SVG Version: 6.00 Build 0)  -->
<svg version="1.1" id="Capa_1" xmlns:x="&ns_extend;" xmlns:i="&ns_ai;" xmlns:graph="&ns_graphs;"
	 xmlns="http://www.w3.org/2000/svg" xmlns:xlink="http://www.w3.org/1999/xlink" x="0px" y="0px" viewBox="0 0 40 40"
	 enable-background="new 0 0 40 40" xml:space="preserve">
<metadata>
	<sfw  xmlns="&ns_sfw;">
		<slices></slices>
		<sliceSourceBounds  width="31.5" height="39.6" bottomLeftOrigin="true" x="4.9" y="-39.6"></sliceSourceBounds>
	</sfw>
</metadata>
<g>
	<path fill-rule="evenodd" clip-rule="evenodd" fill="#2B6758" d="M35.3,23c-0.3,1.4-0.5,1.9-0.9,2.4c-1.1,1.5-2.8,1.5-4.1,1.6
		c-5.7,0.3-17.4,0.8-21.2-0.2c-1.2-0.2-2.7-0.8-3-4.2C5.6,17.5,5.5,12.1,5.8,6.7c0.3-5.1,1.6-6.1,5.9-6.4c6.9-0.3,10.6-0.4,18.3,0
		c2.9,0.2,4.5,0.9,5,3.4c0.5,2.7,0.6,6.6,0.7,9.9C35.7,17.1,35.6,20.2,35.3,23 M19.3,7.4C12.3,8.2,10.7,7,8.6,9.2
		c-0.2-2.3-0.2-3.8,0-4.9c0.2-1.2,0.7-1.8,1.3-2.2c1.7-0.8,2.6-0.1,4,0.8C16,4.4,18.6,6.5,19.3,7.4 M9,13c-0.1,0,1.4-0.2,2.9,0
		c2.2,0,5.3,0.2,4.1,2.6c3.4-1.9,6.1,0.7,7,1.8c0.3,0.3,1.2,1.9,1.4,3.8c0,2.6-1,4.8-4,5.2c-1.4,0.1-2.7,0.1-3.7-0.1
		c-1.4-0.1-2.6-0.8-3.5-1.9c-0.7-1-1.3-2.1-1.8-3.3C10.1,17.6,9.2,14.5,9,13 M18,25c0.4,0,0.9-0.2,1-0.3c0.3-0.2,0.2-0.3,0.1-0.3
		c-0.2,0-0.4,0-0.7,0.1c-0.3,0-0.5,0.1-0.6,0c-0.3,0-0.2-0.1-0.1-0.3c0.4-0.2,0.3-0.4,0-0.3c-0.3,0.1-0.7,0.4-1.4,0.3
		c-0.5-0.2-0.9-0.6-0.8-1.1c1.6,1.1,1.4-0.7,3.6-0.1c0.8,0.2,1.2,0.1,1.8-0.5c1.1-1,0.8-3.3,0.6-3.9c-0.5-1.2-1.5-2-1.9-2.2
		c-0.7-0.4-2-0.8-2.6-0.1c-1,0.9,1,3.3,2.9,2c-0.7,1.3-2.1,0.1-3.3,1.8c-0.2,0.2-0.4,0.6-0.3,0.8c0.7-0.3,0.7,0.4,1.4-0.1
		c-0.6,1.1,0.6,0.7,0.3,1.6c0-0.5-0.3-0.5-0.5-0.5c-0.5-0.9-1.6-0.6-2-0.2c0.4-1.4,1.2-1.9,1.2-2.8c0-0.3-0.1-0.6-0.2-0.9
		c-0.3-1-0.2-1.5,0.4-2.1c1.1-0.8,2.9-0.3,4.1,0.7c1.2,1.1,1.9,2.5,1.9,4.2c0,1.8-0.9,4.1-3,4.4C19,25.2,18.3,25.1,18,25 M24.1,26
		c1.9,0,4.4-0.9,5.4-3c2-3.9,3.1-8.9,3.5-13c0.2-2,0.7-6.3-1.2-7.8c-1-0.7-2-0.8-3.3-0.2c-1.8,0.9-4,3.1-7.1,5.4
		c-1.4,0.9-2.6,1.7-3.7,2.3c-0.9,0.4-1.8,0.7-2.6,1c1.4-0.9,2.8-1.9,2.4-2.2c-3.1,0.7-6.1-0.3-7.9,1.2c0,0,0,0.1,0,0.1
		c0.6,0,1.4,0,1.8,0c0.1,0,0.1,0,0,0.1c-0.4,0.3-0.9,0.8-1.2,0.9c-0.1,0-0.2,0-0.2-0.1c-0.3-0.1-0.5-0.4-0.7-0.5
		c-0.2,0-0.7,0.2-1.2,0.5c-0.2,0.2-0.3,0.4-0.3,0.7c0.1,0.3,0.2,0.6,0.5,1c0.1-0.5,0.6-0.5,0.8-0.5c1.9,0,4.5,0,6.9,0.4
		c4.3,0.7,7.9,3.3,9.1,6.6C26.1,21.1,25.9,23.7,24.1,26 M25.6,6.2c-3.2,3.4-1.4,4.8,0,7.6c0.8,1.7,1.4,3.6,1.1,6.6
		c-0.6-4.1-2.8-7.5-4-9C21.4,9.7,21,9.5,25.6,6.2"/>
	<path fill-rule="evenodd" clip-rule="evenodd" fill="#2B6758" d="M4.9,28.6c0.3,0,0.7,0,1.3,0.1c0.6,0,1-0.1,1.3-0.1v10.7
		c-0.5-0.1-0.9-0.1-1.3-0.1c-0.4,0-0.8,0-1.2,0.1V28.6z"/>
	<path fill-rule="evenodd" clip-rule="evenodd" fill="#2B6758" d="M8.3,39.4C8.7,37.8,9,36,9.3,34.2c0.3-1.9,0.6-3.7,0.9-5.5
		c0.1,0,0.2,0,0.4,0c0.1,0,0.3,0,0.3,0c0.3,0,0.6-0.1,0.7-0.1c0.9,1.7,2.2,4.2,4,7.3c0.4-0.6,0.7-1.3,1.1-1.9c0.4-0.6,0.7-1.2,1-1.7
		c0.3-0.5,0.6-1.1,1-1.8c0.4-0.7,0.7-1.4,1.1-2c0.1,0,0.4,0,0.7,0.1c0.2,0,0.4-0.1,0.7-0.1c0.1,1.2,0.3,2.1,0.4,2.9
		c0.1,0.7,0.2,1.5,0.3,2.4c0.1,0.9,0.2,1.7,0.4,2.6c0.1,0.9,0.3,1.8,0.5,2.9c-0.5-0.1-0.9-0.1-1.4-0.1c-0.5,0-0.9,0-1.4,0.1
		c0-0.6-0.1-1.2-0.1-1.8c-0.1-0.6-0.1-1.1-0.2-1.5c0-0.4-0.1-1-0.2-1.9c-0.1-0.8-0.2-1.5-0.2-2.1c-1.4,2.5-2.7,4.9-3.8,7.2h-0.3
		h-0.3c-0.2-0.4-0.6-1.1-1-1.9c-0.5-0.8-0.8-1.5-1-1.9c-0.2-0.4-0.5-1-0.9-1.7c-0.4-0.7-0.6-1.2-0.8-1.6c-0.1,0.7-0.2,1.5-0.3,2.5
		c-0.1,1-0.2,1.8-0.3,2.6c-0.1,0.8-0.1,1.5-0.1,2c-0.2,0-0.3,0-0.4,0c-0.1,0-0.2,0-0.4,0C8.8,39.3,8.5,39.4,8.3,39.4"/>
	<path fill-rule="evenodd" clip-rule="evenodd" fill="#2B6758" d="M22.9,36.9h0.3c0.1,0.5,0.4,0.9,0.8,1.2c0.4,0.3,0.9,0.5,1.6,0.5
		c0.6,0,1-0.1,1.4-0.4c0.4-0.3,0.6-0.7,0.6-1.2c0-0.4-0.2-0.8-0.5-1.1c-0.3-0.3-0.9-0.6-1.8-0.9c-0.6-0.3-1.2-0.5-1.6-0.8
		c-0.4-0.3-0.7-0.6-1-1c-0.2-0.4-0.3-0.9-0.3-1.4c0-0.6,0.1-1.1,0.4-1.6c0.3-0.5,0.7-0.9,1.3-1.2c0.6-0.3,1.4-0.5,2.3-0.5
		c0.5,0,1,0.1,1.5,0.2c0.5,0.1,0.9,0.3,1.2,0.5c-0.1,0.2-0.2,0.5-0.3,0.8c-0.1,0.3-0.2,0.5-0.3,0.8h-0.3c-0.1-0.4-0.4-0.7-0.7-1
		c-0.3-0.3-0.8-0.4-1.3-0.4c-1.3,0-1.9,0.5-1.9,1.6c0,0.6,0.5,1.1,1.5,1.6l1.3,0.6c1,0.4,1.6,0.9,2,1.4c0.3,0.5,0.5,1.1,0.5,1.8
		c0,0.5-0.2,1-0.4,1.4c-0.3,0.4-0.6,0.8-1.1,1.1c-0.4,0.3-0.9,0.5-1.5,0.6c-0.5,0.1-1.1,0.2-1.7,0.2c-1.1,0-2-0.3-2.8-0.7
		C22.6,38.2,22.8,37.5,22.9,36.9"/>
	<path fill-rule="evenodd" clip-rule="evenodd" fill="#2B6758" d="M29.6,36.9h0.3c0.1,0.5,0.4,0.9,0.8,1.2c0.4,0.3,0.9,0.5,1.6,0.5
		c0.6,0,1-0.1,1.4-0.4c0.4-0.3,0.6-0.7,0.6-1.2c0-0.4-0.2-0.8-0.5-1.1c-0.3-0.3-0.9-0.6-1.8-0.9c-0.6-0.3-1.2-0.5-1.6-0.8
		c-0.4-0.3-0.7-0.6-1-1c-0.2-0.4-0.3-0.9-0.3-1.4c0-0.6,0.1-1.1,0.4-1.6c0.3-0.5,0.7-0.9,1.3-1.2c0.6-0.3,1.4-0.5,2.3-0.5
		c0.5,0,1,0.1,1.5,0.2c0.5,0.1,0.9,0.3,1.2,0.5c-0.1,0.2-0.2,0.5-0.3,0.8c-0.1,0.3-0.2,0.5-0.3,0.8h-0.3c-0.1-0.4-0.4-0.7-0.7-1
		c-0.3-0.3-0.8-0.4-1.3-0.4c-1.3,0-1.9,0.5-1.9,1.6c0,0.6,0.5,1.1,1.5,1.6L34,33c1,0.4,1.6,0.9,2,1.4c0.3,0.5,0.5,1.1,0.5,1.8
		c0,0.5-0.2,1-0.4,1.4c-0.3,0.4-0.6,0.8-1.1,1.1c-0.4,0.3-0.9,0.5-1.5,0.6c-0.5,0.1-1.1,0.2-1.7,0.2c-1.1,0-2-0.3-2.8-0.7
		C29.3,38.2,29.5,37.5,29.6,36.9"/>
</g>
</svg>
